<?xml version="1.0" encoding="UTF-8"?>
<svg xmlns="http://www.w3.org/2000/svg" width="800" height="450" viewBox="0 0 800 450">
  <defs>
    <linearGradient id="g" x1="0" y1="0" x2="1" y2="1">
      <stop offset="0%" stop-color="#020617"/>
      <stop offset="55%" stop-color="#064e3b"/>
      <stop offset="100%" stop-color="#000"/>
    </linearGradient>
    <radialGradient id="glow" cx="70%" cy="20%" r="50%">
      <stop offset="0%" stop-color="#34d399" stop-opacity="0.35"/>
      <stop offset="100%" stop-color="transparent"/>
    </radialGradient>
  </defs>
  <rect width="800" height="450" fill="url(#g)"/>
  <rect width="800" height="450" fill="url(#glow)"/>
  <circle cx="76%" cy="12%" r="2.6" fill="#86efac" opacity="0.55"/><circle cx="23%" cy="85%" r="0.6" fill="#86efac" opacity="0.65"/><circle cx="70%" cy="58%" r="1.6" fill="#86efac" opacity="0.25"/><circle cx="17%" cy="31%" r="2.6" fill="#86efac" opacity="0.35"/><circle cx="64%" cy="4%" r="0.6" fill="#86efac" opacity="0.45"/><circle cx="11%" cy="77%" r="1.6" fill="#86efac" opacity="0.55"/><circle cx="58%" cy="50%" r="2.6" fill="#86efac" opacity="0.65"/><circle cx="5%" cy="23%" r="0.6" fill="#86efac" opacity="0.25"/><circle cx="52%" cy="96%" r="1.6" fill="#86efac" opacity="0.35"/><circle cx="99%" cy="69%" r="2.6" fill="#86efac" opacity="0.45"/><circle cx="46%" cy="42%" r="0.6" fill="#86efac" opacity="0.55"/><circle cx="93%" cy="15%" r="1.6" fill="#86efac" opacity="0.65"/><circle cx="40%" cy="88%" r="2.6" fill="#86efac" opacity="0.25"/><circle cx="87%" cy="61%" r="0.6" fill="#86efac" opacity="0.35"/><circle cx="34%" cy="34%" r="1.6" fill="#86efac" opacity="0.45"/><circle cx="81%" cy="7%" r="2.6" fill="#86efac" opacity="0.55"/><circle cx="28%" cy="80%" r="0.6" fill="#86efac" opacity="0.65"/><circle cx="75%" cy="53%" r="1.6" fill="#86efac" opacity="0.25"/><circle cx="22%" cy="26%" r="2.6" fill="#86efac" opacity="0.35"/><circle cx="69%" cy="99%" r="0.6" fill="#86efac" opacity="0.45"/><circle cx="16%" cy="72%" r="1.6" fill="#86efac" opacity="0.55"/><circle cx="63%" cy="45%" r="2.6" fill="#86efac" opacity="0.65"/><circle cx="10%" cy="18%" r="0.6" fill="#86efac" opacity="0.25"/><circle cx="57%" cy="91%" r="1.6" fill="#86efac" opacity="0.35"/><circle cx="4%" cy="64%" r="2.6" fill="#86efac" opacity="0.45"/><circle cx="51%" cy="37%" r="0.6" fill="#86efac" opacity="0.55"/><circle cx="98%" cy="10%" r="1.6" fill="#86efac" opacity="0.65"/><circle cx="45%" cy="83%" r="2.6" fill="#86efac" opacity="0.25"/>
  <text x="48" y="210" font-family="Georgia, serif" font-size="120" fill="#34d399" fill-opacity="0.18">A</text>
  <text x="48" y="300" font-family="ui-monospace, Consolas, monospace" font-size="34" fill="#34d399" font-weight="700">ARNOLD.DEV Portfolio</text>
  <text x="48" y="340" font-family="ui-monospace, Consolas, monospace" font-size="18" fill="#a7f3d0" fill-opacity="0.8">Personal Developer Portfolio</text>
  <rect x="48" y="360" width="120" height="3" fill="#34d399"/>
</svg>